<svg width="42" height="42" viewBox="0 0 42 42" fill="none" xmlns="http://www.w3.org/2000/svg">
<path fill-rule="evenodd" clip-rule="evenodd" d="M21 -0.00219727C28.8646 -0.00219727 35.4183 6.55149 35.4183 14.4161C35.4183 16.9829 34.536 19.5142 33.303 21.8077C32.0652 24.1102 30.4266 26.26 28.7987 28.0902C27.1676 29.924 25.5196 31.4679 24.2356 32.5587C23.5943 33.1035 23.0329 33.5445 22.6001 33.8568C22.3864 34.011 22.1861 34.1466 22.0133 34.2504C21.9292 34.3008 21.8267 34.359 21.7176 34.4094C21.6634 34.4343 21.5853 34.4679 21.4922 34.4976C21.4189 34.521 21.2358 34.5759 21 34.5759C20.7622 34.5759 20.5776 34.5201 20.5041 34.4964C20.4105 34.4661 20.3321 34.4322 20.2778 34.407C20.1686 34.356 20.066 34.2975 19.9819 34.2465C19.8091 34.1418 19.6089 34.005 19.3953 33.8496C18.9628 33.5352 18.4017 33.0912 17.7607 32.5428C16.4773 31.4454 14.8301 29.8935 13.1998 28.0548C11.5728 26.2197 9.93508 24.068 8.69764 21.771C7.46551 19.4838 6.58174 16.9627 6.58174 14.4161C6.58174 6.55149 13.1354 -0.00219727 21 -0.00219727ZM21 18.7222C18.6218 18.7222 16.6939 16.7943 16.6939 14.4161C16.6939 12.0379 18.6218 10.11 21 10.11C23.3782 10.11 25.3061 12.0379 25.3061 14.4161C25.3061 16.7943 23.3782 18.7222 21 18.7222ZM30.2976 30.4692C30.8511 29.847 31.4049 29.1951 31.9485 28.5178H35.9778C36.5778 28.5178 37.1202 28.8754 37.3566 29.4269L41.8497 39.9114C42.0483 40.3749 42.0009 40.9071 41.7234 41.328C41.4459 41.7489 40.9752 42.0021 40.4712 42.0021H1.52893C1.02472 42.0021 0.554237 41.7489 0.276674 41.328C-0.00089152 40.9071 -0.0484016 40.3749 0.150219 39.9114L4.64353 29.4269C4.8799 28.8754 5.42221 28.5178 6.02227 28.5178H10.0883C10.6195 29.1793 11.1602 29.8168 11.7005 30.426C13.6851 32.6646 15.6907 34.5543 17.2521 35.8893C18.0322 36.5565 18.7122 37.0944 19.2329 37.473C19.4906 37.6605 19.7273 37.8219 19.9276 37.9431C20.0254 38.0025 20.1395 38.0673 20.2578 38.1225C20.3167 38.1501 20.399 38.1855 20.4959 38.2167C20.5727 38.2416 20.76 38.298 20.9999 38.298C21.2377 38.298 21.4235 38.2425 21.5 38.2182C21.5965 38.1873 21.6785 38.1522 21.7373 38.1249C21.8554 38.0703 21.9694 38.0061 22.0673 37.9473C22.2676 37.827 22.5043 37.6668 22.7621 37.4808C23.2832 37.1049 23.9635 36.5709 24.7439 35.9079C26.3059 34.581 28.3123 32.7012 30.2976 30.4692Z" fill="black"/>
</svg>
