<svg width="87" height="80" viewBox="0 0 87 80" fill="none" xmlns="http://www.w3.org/2000/svg">
<path d="M36.251 60C42.9603 59.9998 49.462 57.8604 54.6482 53.9464C59.8344 50.0323 63.3843 44.5858 64.693 38.5349C66.0017 32.4839 64.9881 26.2029 61.8252 20.762C58.6622 15.3211 53.5457 11.057 47.3471 8.69626C41.1484 6.33548 34.2512 6.02411 27.8308 7.81518C21.4105 9.60626 15.8643 13.389 12.137 18.5188C8.40963 23.6486 6.73196 29.8081 7.38977 35.9479C8.04757 42.0876 11.0002 47.8277 15.7445 52.19C18.4375 54.6662 21.6345 56.6304 25.153 57.9705C28.6716 59.3105 32.4427 60.0002 36.251 60Z" stroke="#ABABAB" stroke-linecap="round" stroke-linejoin="round"/>
<path d="M79.7512 73.3333L65.2512 60" stroke="#ABABAB" stroke-linecap="round" stroke-linejoin="round"/>
</svg>
