<svg width="29" height="29" viewBox="0 0 29 29" fill="none" xmlns="http://www.w3.org/2000/svg">
<g clip-path="url(#clip0_111_1038)">
<path d="M27.7918 15.7083C27.7875 12.3943 26.5463 9.20117 24.3113 6.75413C22.0764 4.30708 19.0086 2.7823 15.7085 2.47829V0H13.2918V2.47829C10.8199 2.69918 8.45959 3.60913 6.47911 5.10472C4.49863 6.60031 2.97747 8.62153 2.08854 10.9386C1.19962 13.2557 0.978597 15.7757 1.4506 18.2122C1.9226 20.6486 3.06869 22.9038 4.75859 24.7213L2.42892 27.2805L4.21726 28.907L6.55417 26.3417C8.84305 28.0692 11.6326 29.0037 14.5002 29.0037C17.3678 29.0037 20.1573 28.0692 22.4462 26.3417L24.7831 28.9106L26.5714 27.2842L24.2418 24.7249C26.5229 22.2766 27.7915 19.0547 27.7918 15.7083V15.7083ZM14.5002 26.5833C12.3493 26.5833 10.2467 25.9455 8.45835 24.7506C6.66996 23.5556 5.27609 21.8572 4.45298 19.87C3.62988 17.8829 3.41452 15.6963 3.83413 13.5867C4.25375 11.4772 5.28949 9.53944 6.81039 8.01855C8.33128 6.49765 10.269 5.46191 12.3786 5.04229C14.4881 4.62268 16.6747 4.83804 18.6619 5.66114C20.649 6.48425 22.3474 7.87812 23.5424 9.66651C24.7374 11.4549 25.3752 13.5575 25.3752 15.7083C25.3717 18.5915 24.2248 21.3555 22.1861 23.3942C20.1474 25.4329 17.3833 26.5798 14.5002 26.5833V26.5833Z" fill="#ED6624"/>
<path d="M6.67347 2.1085L5.38418 0.067627C3.29854 1.29123 1.4756 2.91541 0.0203857 4.84659L2.02984 6.18663C3.29575 4.5363 4.87349 3.1507 6.67347 2.1085V2.1085Z" fill="#ED6624"/>
<path d="M26.9703 6.18663L28.9797 4.84659C27.5245 2.91541 25.7016 1.29123 23.616 0.067627L22.3267 2.1085C24.1266 3.1507 25.7044 4.5363 26.9703 6.18663V6.18663Z" fill="#ED6624"/>
<path d="M13.2919 8.45825V15.0002L17.2709 18.9792L18.9795 17.2706L15.7085 13.9997V8.45825H13.2919Z" fill="#ED6624"/>
</g>
<defs>
<clipPath id="clip0_111_1038">
<rect width="29" height="29" fill="white"/>
</clipPath>
</defs>
</svg>
