<svg width="69" height="74" viewBox="0 0 69 74" fill="none" xmlns="http://www.w3.org/2000/svg">
<path d="M42.0414 0.0185288C49.431 -0.0458029 56.7666 0.0399728 64.14 0.554627C64.14 2.14684 64.14 3.73905 64.14 5.37951C65.7408 5.37951 67.3417 5.37951 68.991 5.37951C69.0395 13.4531 68.8886 21.5107 68.6352 29.579C68.6029 30.7798 68.5652 31.9753 68.5274 33.1762C68.4358 36.2855 68.3388 39.4003 68.2418 42.5096C68.1448 45.7048 68.0477 48.8946 67.9507 52.0843C67.7567 58.3191 67.568 64.5486 67.374 70.7834C65.3043 71.1694 63.2345 71.55 61.1648 71.9307C60.1192 72.1183 59.0735 72.3167 58.0279 72.5097C54.6268 73.1262 51.4306 73.6355 47.9703 73.4639C47.9703 71.6948 47.9703 69.9257 47.9703 68.1029C45.3023 68.6337 45.3023 68.6337 42.5804 69.1751C42.4025 64.0447 42.2246 58.9142 42.0414 53.6283C39.7291 57.8742 37.4168 62.1201 35.0345 66.4946C34.5009 66.4946 33.9673 66.4946 33.4175 66.4946C32.5282 64.9024 31.6388 63.3102 30.7225 61.6698C30.1889 61.8467 29.6553 62.0236 29.1056 62.2059C27.149 59.0214 25.1925 55.837 23.1767 52.5561C22.9988 59.6326 22.8209 66.7091 22.6377 74C20.4008 73.5818 18.1694 73.1583 15.8679 72.7241C15.1672 72.5954 14.4719 72.4668 13.7551 72.3327C10.7367 71.7591 7.78304 71.164 4.85093 70.2473C4.85093 68.832 4.85093 67.4167 4.85093 65.9585C3.25012 65.7816 1.64932 65.6047 0 65.4224C0 45.2544 0 25.0865 0 4.30731C13.4748 1.09072 13.4748 1.09072 18.3257 0.554627C19.4199 2.55427 19.9427 3.5943 19.9427 5.9156C21.0099 5.73869 22.0771 5.56178 23.1767 5.37951C25.1062 9.5021 26.6478 13.7265 28.1623 18.01C28.4103 18.7123 28.6636 19.4145 28.9115 20.1168C29.5152 21.8163 30.1189 23.5157 30.7225 25.2151C33.4983 19.9238 35.8591 14.4878 38.2037 8.99817C38.5756 8.12433 38.9529 7.25049 39.3249 6.37665C40.2304 4.25906 41.1359 2.13611 42.0414 0.0185288ZM42.5804 1.09072C40.9849 4.74691 39.3895 8.4031 37.7941 12.0539C37.0503 13.7587 36.3065 15.4581 35.5627 17.1629C34.7057 19.1143 33.8541 21.0711 33.0025 23.0278C32.733 23.6336 32.4689 24.2394 32.194 24.8667C31.9461 25.4349 31.6981 26.0032 31.4448 26.5929C31.2238 27.0915 31.0082 27.59 30.7818 28.1047C30.2051 29.4557 29.6499 30.8173 29.1056 32.1844C27.2245 27.1504 25.3703 22.1111 23.5432 17.0611C23.3815 16.6322 23.2252 16.198 23.0635 15.753C22.2658 13.5496 21.468 11.3463 20.6757 9.14291C20.3739 8.31732 20.0774 7.49173 19.781 6.66614C19.5708 6.09251 19.5708 6.09251 19.3606 5.50281C18.6491 3.53533 18.6491 3.53533 17.7867 1.62682C11.9495 2.53819 6.3116 4.01246 0.538992 5.37951C0.538992 24.8398 0.538992 44.3002 0.538992 64.3502C2.56021 65.0204 4.32272 65.5886 6.37088 65.9961C7.07157 66.1355 7.07157 66.1355 7.78304 66.2802C8.26275 66.3713 8.73706 66.4678 9.22754 66.559C9.71263 66.6608 10.1923 66.7573 10.6882 66.8592C11.1517 66.9503 11.6207 67.0415 12.1004 67.138C12.7256 67.2613 12.7256 67.2613 13.3724 67.3846C14.7091 67.6204 14.7091 67.6204 16.7087 67.5668C16.8866 58.7212 17.0645 49.8756 17.2477 40.7619C18.3042 42.5525 19.3606 44.3431 20.4494 46.1873C23.2306 50.8888 26.0872 55.5154 29.1056 60.0615C30.5285 58.7909 31.3478 57.4614 32.2425 55.7834C32.5282 55.2527 32.8138 54.7166 33.1103 54.1698C33.4121 53.6068 33.7139 53.0386 34.0212 52.4542C34.6518 51.2909 35.277 50.1222 35.9023 48.9589C36.2149 48.3853 36.5221 47.8116 36.8401 47.2219C38.2469 44.6379 39.7129 42.0861 41.2113 39.5504C42.0845 38.0386 42.5804 37.1755 42.5804 35.401C42.9361 35.401 43.2918 35.401 43.6583 35.401C43.6583 46.0157 43.6583 56.6304 43.6583 67.5668C48.2559 67.1808 48.2559 67.1808 52.7619 66.5107C53.274 66.4142 53.7914 66.3177 54.325 66.2212C54.837 66.1247 55.3545 66.0282 55.8881 65.9264C56.4271 65.8245 56.9661 65.7227 57.5212 65.6208C58.831 65.3796 60.1353 65.1329 61.4451 64.8863C61.4559 64.4843 61.472 64.0768 61.4828 63.664C61.6014 59.7988 61.72 55.9389 61.8385 52.079C61.8978 50.0954 61.9625 48.1065 62.0218 46.1229C62.0919 43.8284 62.1619 41.5286 62.232 39.2341C62.2482 38.8588 62.259 38.4782 62.2697 38.0922C62.4153 33.4442 62.5931 28.8016 62.8249 24.159C63.0728 19.1679 63.1267 14.1983 63.0944 9.19652C63.0836 6.52139 63.0728 3.84627 63.0621 1.09072C56.3031 1.09072 49.5441 1.09072 42.5804 1.09072Z" fill="#09364C"/>
</svg>
