<svg width="35" height="35" viewBox="0 0 35 35" fill="none" xmlns="http://www.w3.org/2000/svg">
<path d="M31.6458 19.4693L30.1874 20.9223L27.1978 17.9436L28.6562 16.4905C28.8061 16.3441 29.0077 16.2621 29.2176 16.2621C29.4276 16.2621 29.6292 16.3441 29.7791 16.4905L31.6458 18.3504C31.952 18.6556 31.952 19.1641 31.6458 19.4693ZM17.4999 27.5918L26.3374 18.7863L29.327 21.7651L20.5041 30.585H17.4999V27.5918ZM17.4999 20.4137C11.0541 20.4137 5.83325 23.0147 5.83325 26.2259V29.132H14.5833V26.3857L20.4166 20.5736C19.4541 20.4573 18.477 20.4137 17.4999 20.4137ZM17.4999 5.8833C15.9528 5.8833 14.4691 6.49565 13.3751 7.58565C12.2812 8.67564 11.6666 10.154 11.6666 11.6955C11.6666 13.237 12.2812 14.7153 13.3751 15.8053C14.4691 16.8953 15.9528 17.5076 17.4999 17.5076C19.047 17.5076 20.5307 16.8953 21.6247 15.8053C22.7187 14.7153 23.3333 13.237 23.3333 11.6955C23.3333 10.154 22.7187 8.67564 21.6247 7.58565C20.5307 6.49565 19.047 5.8833 17.4999 5.8833Z" fill="#208CB0"/>
</svg>
