<svg width="32" height="28" viewBox="0 0 32 28" fill="none" xmlns="http://www.w3.org/2000/svg">
<g clip-path="url(#clip0_111_1600)">
<path d="M31.761 13.0445C30.5904 10.8045 25.9997 3.5 15.9997 3.5C5.99971 3.5 1.40904 10.8045 0.238373 13.0445C0.081224 13.3447 -0.00012207 13.671 -0.00012207 14.0012C-0.00012207 14.3313 0.081224 14.6576 0.238373 14.9578C1.40904 17.1955 5.99971 24.5 15.9997 24.5C25.9997 24.5 30.5904 17.1955 31.761 14.9555C31.9179 14.6557 31.9991 14.3298 31.9991 14C31.9991 13.6702 31.9179 13.3443 31.761 13.0445V13.0445ZM15.9997 22.1667C7.59037 22.1667 3.66637 15.9063 2.66637 14.0128C3.66637 12.0937 7.59037 5.83333 15.9997 5.83333C24.389 5.83333 28.3144 12.0668 29.333 14C28.3144 15.9332 24.389 22.1667 15.9997 22.1667Z" fill="#208CB0"/>
<path d="M15.9997 8.16699C14.6811 8.16699 13.3922 8.50911 12.2959 9.15009C11.1995 9.79106 10.3451 10.7021 9.84048 11.768C9.3359 12.8339 9.20387 14.0068 9.46111 15.1384C9.71834 16.2699 10.3533 17.3093 11.2856 18.1251C12.218 18.9409 13.4059 19.4965 14.6991 19.7216C15.9923 19.9467 17.3327 19.8311 18.5509 19.3896C19.7691 18.9481 20.8103 18.2004 21.5428 17.2412C22.2754 16.2819 22.6663 15.1541 22.6663 14.0003C22.6642 12.4538 21.9612 10.9711 20.7114 9.87758C19.4616 8.78402 17.7671 8.16884 15.9997 8.16699V8.16699ZM15.9997 17.5003C15.2086 17.5003 14.4352 17.2951 13.7774 16.9105C13.1196 16.5259 12.6069 15.9793 12.3042 15.3397C12.0014 14.7002 11.9222 13.9964 12.0765 13.3175C12.2309 12.6386 12.6118 12.0149 13.1712 11.5255C13.7307 11.036 14.4434 10.7026 15.2193 10.5676C15.9952 10.4325 16.7995 10.5018 17.5304 10.7667C18.2613 11.0317 18.886 11.4803 19.3256 12.0558C19.7651 12.6314 19.9997 13.3081 19.9997 14.0003C19.9997 14.9286 19.5783 15.8188 18.8281 16.4752C18.078 17.1316 17.0605 17.5003 15.9997 17.5003Z" fill="#208CB0"/>
</g>
<defs>
<clipPath id="clip0_111_1600">
<rect width="32" height="28" fill="white"/>
</clipPath>
</defs>
</svg>
