<svg width="93" height="93" viewBox="0 0 93 93" fill="none" xmlns="http://www.w3.org/2000/svg">
<path d="M46.5 0.25C20.97 0.25 0.25 20.97 0.25 46.5C0.25 72.03 20.97 92.75 46.5 92.75C72.03 92.75 92.75 72.03 92.75 46.5C92.75 20.97 72.03 0.25 46.5 0.25ZM46.5 14.125C54.1775 14.125 60.375 20.3225 60.375 28C60.375 35.6775 54.1775 41.875 46.5 41.875C38.8225 41.875 32.625 35.6775 32.625 28C32.625 20.3225 38.8225 14.125 46.5 14.125ZM46.5 79.8C34.9375 79.8 24.7162 73.88 18.75 64.9075C18.8887 55.7037 37.25 50.6625 46.5 50.6625C55.7038 50.6625 74.1113 55.7037 74.25 64.9075C68.2838 73.88 58.0625 79.8 46.5 79.8Z" fill="#208CB0"/>
</svg>
