<svg width="35" height="35" viewBox="0 0 35 35" fill="none" xmlns="http://www.w3.org/2000/svg">
<path d="M17.4999 5.81201C19.047 5.81201 20.5307 6.42436 21.6247 7.51436C22.7187 8.60435 23.3333 10.0827 23.3333 11.6242C23.3333 13.1657 22.7187 14.644 21.6247 15.734C20.5307 16.824 19.047 17.4364 17.4999 17.4364C15.9528 17.4364 14.4691 16.824 13.3751 15.734C12.2812 14.644 11.6666 13.1657 11.6666 11.6242C11.6666 10.0827 12.2812 8.60435 13.3751 7.51436C14.4691 6.42436 15.9528 5.81201 17.4999 5.81201ZM17.4999 20.3424C23.9458 20.3424 29.1666 22.9434 29.1666 26.1546V29.0607H5.83325V26.1546C5.83325 22.9434 11.0541 20.3424 17.4999 20.3424Z" fill="#208CB0"/>
</svg>
