<svg width="140" height="160" viewBox="0 0 140 160" fill="none" xmlns="http://www.w3.org/2000/svg">
<path d="M85.3013 0.0400624C100.295 -0.0990332 115.179 0.0864276 130.139 1.19919C130.139 4.64181 130.139 8.08442 130.139 11.6314C133.387 11.6314 136.635 11.6314 139.982 11.6314C140.08 29.0879 139.774 46.5096 139.26 63.9545C139.194 66.5509 139.118 69.1358 139.041 71.7322C138.855 78.4552 138.658 85.1897 138.462 91.9127C138.265 98.8211 138.068 105.718 137.871 112.615C137.477 126.095 137.095 139.565 136.701 153.045C132.501 153.88 128.302 154.703 124.103 155.526C121.981 155.931 119.859 156.36 117.738 156.778C110.837 158.111 104.352 159.212 97.331 158.841C97.331 155.016 97.331 151.191 97.331 147.25C91.9177 148.397 91.9176 148.397 86.3949 149.568C86.034 138.475 85.6732 127.382 85.3013 115.953C80.6098 125.133 75.9182 134.314 71.0844 143.772C70.0018 143.772 68.9191 143.772 67.8036 143.772C65.9992 140.33 64.1947 136.887 62.3356 133.34C61.2529 133.723 60.1702 134.105 59.0548 134.499C55.085 127.614 51.1152 120.729 47.0251 113.635C46.6642 128.935 46.3033 144.236 45.9315 160C41.393 159.096 36.8655 158.18 32.1958 157.241C30.7741 156.963 29.3633 156.685 27.9088 156.395C21.7846 155.155 15.7917 153.868 9.84246 151.886C9.84246 148.826 9.84246 145.766 9.84246 142.613C6.59445 142.231 3.34644 141.848 0 141.454C0 97.8474 0 54.241 0 9.3131C27.3402 2.35832 27.3402 2.35832 37.1826 1.19919C39.4027 5.52275 40.4635 7.77146 40.4635 12.7905C42.6288 12.408 44.7941 12.0255 47.0251 11.6314C50.9402 20.5451 54.0679 29.679 57.141 38.9405C57.644 40.4589 58.158 41.9774 58.6611 43.4958C59.8859 47.1703 61.1107 50.8447 62.3356 54.5192C67.9677 43.0786 72.7577 31.325 77.5148 19.4555C78.2694 17.5661 79.035 15.6767 79.7896 13.7873C81.6268 9.20878 83.4641 4.61863 85.3013 0.0400624Z" fill="#FCFCFC"/>
<path d="M85.3013 0.0400624C100.295 -0.0990332 115.179 0.0864276 130.139 1.19919C130.139 4.64181 130.139 8.08442 130.139 11.6314C133.387 11.6314 136.635 11.6314 139.982 11.6314C140.08 29.0879 139.774 46.5096 139.26 63.9545C139.194 66.5509 139.118 69.1358 139.041 71.7322C138.855 78.4552 138.658 85.1897 138.462 91.9127C138.265 98.8211 138.068 105.718 137.871 112.615C137.477 126.095 137.095 139.565 136.701 153.045C132.501 153.88 128.302 154.703 124.103 155.526C121.981 155.931 119.859 156.36 117.738 156.778C110.837 158.111 104.352 159.212 97.331 158.841C97.331 155.016 97.331 151.191 97.331 147.25C91.9177 148.397 91.9176 148.397 86.3949 149.568C86.034 138.475 85.6732 127.382 85.3013 115.953C80.6098 125.133 75.9182 134.314 71.0844 143.772C70.0018 143.772 68.9191 143.772 67.8036 143.772C65.9992 140.33 64.1947 136.887 62.3356 133.34C61.2529 133.723 60.1702 134.105 59.0548 134.499C55.085 127.614 51.1152 120.729 47.0251 113.635C46.6642 128.935 46.3033 144.236 45.9315 160C41.393 159.096 36.8655 158.18 32.1958 157.241C30.7741 156.963 29.3633 156.685 27.9088 156.395C21.7846 155.155 15.7917 153.868 9.84246 151.886C9.84246 148.826 9.84246 145.766 9.84246 142.613C6.59445 142.231 3.34644 141.848 0 141.454C0 97.8474 0 54.241 0 9.3131C27.3402 2.35832 27.3402 2.35832 37.1826 1.19919C39.4027 5.52275 40.4635 7.77146 40.4635 12.7905C42.6288 12.408 44.7941 12.0255 47.0251 11.6314C50.9402 20.5451 54.0679 29.679 57.141 38.9405C57.644 40.4589 58.158 41.9774 58.6611 43.4958C59.8859 47.1703 61.1107 50.8447 62.3356 54.5192C67.9677 43.0786 72.7577 31.325 77.5148 19.4555C78.2694 17.5661 79.035 15.6767 79.7896 13.7873C81.6268 9.20878 83.4641 4.61863 85.3013 0.0400624ZM86.3949 2.35832C83.1579 10.2636 79.9208 18.1689 76.6837 26.0625C75.1745 29.7486 73.6654 33.423 72.1562 37.109C70.4173 41.3283 68.6894 45.5591 66.9615 49.7899C66.4147 51.0997 65.8789 52.4095 65.3211 53.7657C64.8181 54.9944 64.315 56.2231 63.801 57.4981C63.3526 58.5761 62.9152 59.6541 62.4559 60.7669C61.2857 63.6879 60.1593 66.6321 59.0548 69.5879C55.2381 58.7036 51.4761 47.8078 47.7687 36.8888C47.4407 35.9615 47.1235 35.0226 46.7954 34.0605C45.1769 29.2965 43.5584 24.5325 41.9508 19.7685C41.3383 17.9834 40.7369 16.1983 40.1354 14.4133C39.7089 13.173 39.7089 13.173 39.2824 11.898C37.8388 7.64395 37.8388 7.64395 36.089 3.51745C24.2453 5.48797 12.8061 8.67558 1.09361 11.6314C1.09361 53.7078 1.09361 95.7842 1.09361 139.136C5.19463 140.585 8.77073 141.813 12.9264 142.694C14.3481 142.996 14.3481 142.996 15.7917 143.309C16.765 143.506 17.7274 143.714 18.7225 143.911C19.7068 144.132 20.6801 144.34 21.6862 144.56C22.6267 144.757 23.5782 144.954 24.5515 145.163C25.8201 145.43 25.8201 145.43 27.1324 145.696C29.8445 146.206 29.8445 146.206 33.9018 146.09C34.2627 126.965 34.6236 107.839 34.9954 88.1339C37.1389 92.0054 39.2824 95.8769 41.4914 99.8643C47.1345 110.03 52.9306 120.033 59.0548 129.863C61.9419 127.115 63.6042 124.241 65.4196 120.613C65.9992 119.465 66.5788 118.306 67.1803 117.124C67.7927 115.907 68.4051 114.678 69.0285 113.415C70.308 110.899 71.5766 108.372 72.8451 105.857C73.4794 104.617 74.1028 103.377 74.748 102.101C77.6023 96.5145 80.5769 90.997 83.6172 85.5143C85.3888 82.2456 86.3949 80.3794 86.3949 76.5426C87.1167 76.5426 87.8385 76.5426 88.5821 76.5426C88.5821 99.4934 88.5821 122.444 88.5821 146.09C97.9106 145.256 97.9106 145.256 107.053 143.807C108.092 143.598 109.142 143.39 110.225 143.181C111.264 142.972 112.313 142.764 113.396 142.543C114.49 142.323 115.583 142.103 116.71 141.883C119.367 141.361 122.014 140.828 124.671 140.295C124.693 139.425 124.726 138.544 124.748 137.652C124.988 129.295 125.229 120.949 125.47 112.603C125.59 108.314 125.721 104.014 125.841 99.7252C125.984 94.7642 126.126 89.7915 126.268 84.8304C126.301 84.019 126.323 83.196 126.344 82.3615C126.64 72.3118 127.001 62.2737 127.471 52.2357C127.974 41.4442 128.083 30.6991 128.018 19.8844C127.996 14.1003 127.974 8.31625 127.952 2.35832C114.238 2.35832 100.524 2.35832 86.3949 2.35832Z" fill="#09364C"/>
</svg>
