<svg width="32" height="32" viewBox="0 0 32 32" fill="none" xmlns="http://www.w3.org/2000/svg">
<g clip-path="url(#clip0_111_1598)">
<path d="M13.3333 32H0V29.3333H13.3333V32ZM10.6667 24H0V26.6667H10.6667V24ZM8 18.6667H0V21.3333H8V18.6667ZM16 0C11.7579 0.00458811 7.69095 1.69177 4.69136 4.69136C1.69177 7.69095 0.00458811 11.7579 0 16H2.66667C2.66667 13.3629 3.44865 10.7851 4.91374 8.5924C6.37882 6.39974 8.46121 4.69077 10.8976 3.68161C13.3339 2.67244 16.0148 2.40839 18.6012 2.92286C21.1876 3.43733 23.5634 4.70721 25.4281 6.57191C27.2928 8.43661 28.5627 10.8124 29.0771 13.3988C29.5916 15.9852 29.3276 18.6661 28.3184 21.1024C27.3092 23.5388 25.6003 25.6212 23.4076 27.0863C21.2149 28.5513 18.6371 29.3333 16 29.3333V32C20.2435 32 24.3131 30.3143 27.3137 27.3137C30.3143 24.3131 32 20.2435 32 16C32 11.7565 30.3143 7.68687 27.3137 4.68629C24.3131 1.68571 20.2435 0 16 0V0ZM14.6667 9.33333V16.552L19.0573 20.9427L20.9427 19.0573L17.3333 15.448V9.33333H14.6667Z" fill="#ED6624"/>
</g>
<defs>
<clipPath id="clip0_111_1598">
<rect width="32" height="32" fill="white"/>
</clipPath>
</defs>
</svg>
