<svg width="32" height="32" viewBox="0 0 32 32" fill="none" xmlns="http://www.w3.org/2000/svg">
<g clip-path="url(#clip0_43_989)">
<path d="M30.5867 1.41161C29.6802 0.506539 28.4516 -0.00180817 27.1707 -0.00180817C25.8897 -0.00180817 24.6611 0.506539 23.7547 1.41161L0 25.1663V31.9983H6.832L30.5867 8.24361C31.4914 7.33698 31.9995 6.10845 31.9995 4.82761C31.9995 3.54677 31.4914 2.31824 30.5867 1.41161ZM5.73333 29.3316H2.66667V26.2649L20.4133 8.53161L23.48 11.5983L5.73333 29.3316ZM28.7013 6.35828L25.3587 9.70094L22.2987 6.63428L25.64 3.29694C26.0467 2.89028 26.5982 2.66182 27.1733 2.66182C27.7484 2.66182 28.3 2.89028 28.7067 3.29694C29.1133 3.70361 29.3418 4.25516 29.3418 4.83028C29.3418 5.40539 29.1133 5.95694 28.7067 6.36361L28.7013 6.35828Z" fill="#ED6624"/>
</g>
<defs>
<clipPath id="clip0_43_989">
<rect width="32" height="32" fill="white"/>
</clipPath>
</defs>
</svg>
