<svg width="24" height="24" viewBox="0 0 24 24" fill="none" xmlns="http://www.w3.org/2000/svg">
<path d="M11.9999 0C13.5912 0 15.1174 0.632141 16.2426 1.75736C17.3678 2.88258 17.9999 4.4087 17.9999 6C17.9999 7.5913 17.3678 9.11742 16.2426 10.2426C15.1174 11.3679 13.5912 12 11.9999 12C10.4086 12 8.88252 11.3679 7.7573 10.2426C6.63208 9.11742 5.99994 7.5913 5.99994 6C5.99994 4.4087 6.63208 2.88258 7.7573 1.75736C8.88252 0.632141 10.4086 0 11.9999 0ZM11.9999 15C18.6299 15 23.9999 17.685 23.9999 21V24H-6.10352e-05V21C-6.10352e-05 17.685 5.36994 15 11.9999 15Z" fill="#ED6624"/>
</svg>
